<svg xmlns="http://www.w3.org/2000/svg" width="340" height="120" viewBox="0 0 340 120" role="img" aria-label="MIET Jammu">
  <defs>
    <linearGradient id="g" x1="0" y1="0" x2="1" y2="1">
      <stop offset="0" stop-color="#1e40af"/>
      <stop offset="1" stop-color="#2563eb"/>
    </linearGradient>
  </defs>
  <rect x="0" y="0" width="340" height="120" rx="16" fill="white"/>
  <!-- Shield mark -->
  <g transform="translate(18,18)">
    <path d="M42 0c10 10 20 12 30 14v28c0 22-13 39-30 48C25 81 12 64 12 42V14C22 12 32 10 42 0Z" fill="url(#g)"/>
    <path d="M42 18c6 6 12 7 18 8v16c0 12-7 22-18 28-11-6-18-16-18-28V26c6-1 12-2 18-8Z" fill="rgba(255,255,255,0.18)"/>
    <path d="M31 44h22" stroke="white" stroke-width="3" stroke-linecap="round" opacity="0.9"/>
    <path d="M31 54h22" stroke="white" stroke-width="3" stroke-linecap="round" opacity="0.75"/>
  </g>
  <!-- Wordmark -->
  <g transform="translate(110,44)">
    <text x="0" y="0" font-family="ui-sans-serif, system-ui, -apple-system, Segoe UI, Roboto, Helvetica, Arial" font-size="32" font-weight="800" fill="#0f172a">MIET</text>
    <text x="92" y="0" font-family="ui-sans-serif, system-ui, -apple-system, Segoe UI, Roboto, Helvetica, Arial" font-size="22" font-weight="700" fill="#0f172a">Jammu</text>
    <text x="0" y="28" font-family="ui-sans-serif, system-ui, -apple-system, Segoe UI, Roboto, Helvetica, Arial" font-size="12" font-weight="500" fill="#64748b">Vehicle Registration Portal</text>
  </g>
</svg>
